<svg width="194" height="218" viewBox="0 0 194 218" fill="none" xmlns="http://www.w3.org/2000/svg">
<path d="M-50.7517 82.539L29.4192 53.3563L58.5827 -26.7954C59.2513 -28.6316 60.4686 -30.2176 62.0694 -31.3383C63.6701 -32.4589 65.5769 -33.0601 67.531 -33.0601C69.4851 -33.0601 71.3918 -32.4589 72.9926 -31.3383C74.5934 -30.2176 75.8107 -28.6316 76.4793 -26.7954L105.662 53.3755L185.833 82.539C187.669 83.2076 189.255 84.4249 190.376 86.0256C191.496 87.6264 192.097 89.5332 192.097 91.4873C192.097 93.4414 191.496 95.3481 190.376 96.9489C189.255 98.5497 187.669 99.767 185.833 100.436L105.643 129.618L76.4793 209.789C75.8107 211.625 74.5934 213.211 72.9926 214.332C71.3918 215.453 69.4851 216.054 67.531 216.054C65.5769 216.054 63.6701 215.453 62.0694 214.332C60.4686 213.211 59.2513 211.625 58.5827 209.789L29.4 129.599L-50.7517 100.436C-52.5879 99.767 -54.1739 98.5497 -55.2945 96.9489C-56.4152 95.3481 -57.0164 93.4414 -57.0164 91.4873C-57.0164 89.5332 -56.4152 87.6264 -55.2945 86.0256C-54.1739 84.4249 -52.5879 83.2076 -50.7517 82.539Z" stroke="white" stroke-opacity="0.2" stroke-width="2.47243" stroke-linecap="round" stroke-linejoin="round"/>
</svg>
